PathFileType	4	(X/Y/Z)	E:\Qualisys_Data\Carbon_Farble_Plate\Data\Amateur_Runner\S2\T3\S2T3V21_c3d.trc
DataRate	CameraRate	NumFrames	NumMarkers	Units	OrigDataRate	OrigDataStartFrame	OrigNumFrames
200.000000	200.000000	4	39	mm	200.000000	188	301
Frame#	Time	LSHO			RSHO			LICST			RICST			LASIS			LHEEL			RASIS			LTROC			RTROC			SACR			LTH1			LSK4			LTH2			LTH3			RHM5			LSK2			LTH4			RTH1			LTOE			RTH2			RTH3			RTH4			LLEP			RLEP			LSK1			LSK3			RSK1			LHM5			RSK2			LFT1			RSK3			RSK4			LLME			RLME			RTOE			RHEEL			RFT1			RFT2			LFT2			
		X1	Y1	Z1	X2	Y2	Z2	X3	Y3	Z3	X4	Y4	Z4	X5	Y5	Z5	X6	Y6	Z6	X7	Y7	Z7	X8	Y8	Z8	X9	Y9	Z9	X10	Y10	Z10	X11	Y11	Z11	X12	Y12	Z12	X13	Y13	Z13	X14	Y14	Z14	X15	Y15	Z15	X16	Y16	Z16	X17	Y17	Z17	X18	Y18	Z18	X19	Y19	Z19	X20	Y20	Z20	X21	Y21	Z21	X22	Y22	Z22	X23	Y23	Z23	X24	Y24	Z24	X25	Y25	Z25	X26	Y26	Z26	X27	Y27	Z27	X28	Y28	Z28	X29	Y29	Z29	X30	Y30	Z30	X31	Y31	Z31	X32	Y32	Z32	X33	Y33	Z33	X34	Y34	Z34	X35	Y35	Z35	X36	Y36	Z36	X37	Y37	Z37	X38	Y38	Z38	X39	Y39	Z39	

189	0.94	891.2658081054688	1461.107177734375	-444.0596923828125	929.1709594726562	1427.62890625	-135.7490844726562	839.765625	1000.370971679688	-447.9211120605469	850.5657958984375	974.447265625	-146.3998107910156	898.0430908203125	950.81787109375	-429.0986938476562	647.9885864257812	392.4585876464844	-358.2063903808594	904.6196899414062	925.422119140625	-170.0926055908203	782.2734985351562	875.9169921875	-460.6172485351562	747.4851684570312	885.1399536132812	-151.1533050537109	755.5088500976562	1031.885131835938	-290.3731079101562	1016.275939941406	703.5381469726562	-448.4956359863281	832.3037719726562	468.6732177734375	-435.8521423339844	945.1845703125	660.67626953125	-461.9188537597656	1065.402954101562	615.0317993164062	-426.9118041992188	540.559326171875	64.8948974609375	-197.8268737792969	920.9566040039062	515.1688842773438	-445.2956237792969	990.9000854492188	573.3934936523438	-436.9614868164062	802.7056274414062	606.5313110351562	-155.6717834472656	784.208740234375	183.413818359375	-388.9856872558594	729.0628662109375	632.5042114257812	-152.289306640625	768.6620483398438	513.5073852539062	-181.20458984375	694.0260620117188	543.189453125	-172.0427856445312	1038.077392578125	549.1023559570312	-433.8428649902344	708.2029418945312	497.6766357421875	-170.0808258056641	957.0918579101562	445.884033203125	-432.9622802734375	867.6221313476562	400.6038818359375	-427.2711181640625	670.7998046875	376.565185546875	-175.1269683837891	731.0173950195312	226.1168975830078	-444.3403015136719	605.496826171875	422.301025390625	-163.1158752441406	639.1499633789062	367.5859069824219	-326.5732421875	612.4806518554688	293.7686157226562	-188.2510070800781	548.9669189453125	341.7196655273438	-179.7991790771484	695.4539184570312	351.2986755371094	-413.00341796875	470.0420837402344	165.2728424072266	-220.2557678222656	602.5615844726562	52.48271560668945	-254.6268157958984	395.7443542480469	173.2797546386719	-281.8287048339844	398.6001892089844	145.6049194335938	-310.3001403808594	382.9204711914062	152.8185729980469	-261.28564453125	624.2974243164062	372.34521484375	-381.49609375
190	0.945	908.5606079101562	1465.686889648438	-443.6297302246094	950.2703857421876	1432.83251953125	-137.139404296875	860.69482421875	1005.830139160156	-447.5247802734375	874.2860107421875	977.8607177734376	-146.4155883789062	919.2265014648438	955.7793579101562	-428.8594360351562	678.3598022460938	379.1407470703125	-357.6378784179688	927.0344848632812	928.4762573242188	-170.6458892822266	804.4949340820312	881.2188720703125	-461.5597229003906	769.023193359375	890.4554443359375	-150.6339111328125	777.425048828125	1036.230102539062	-288.4967956542969	1039.244506835938	709.4653930664062	-447.0813903808594	859.454345703125	464.3242492675781	-434.385009765625	968.8618774414062	666.413818359375	-460.9364013671875	1088.734741210938	621.4523315429688	-425.8387756347656	543.7074584960938	66.44438171386719	-196.5395660400391	945.5277099609376	515.2490844726562	-443.9761962890625	1014.910339355469	579.5762329101562	-435.7716369628906	818.748291015625	611.5252685546875	-155.4836730957031	826.0701293945312	178.0464630126953	-388.1946411132812	745.6160278320312	639.2378540039062	-150.7791900634766	781.7772827148438	519.1832885742188	-180.3519287109375	708.0362548828125	550.7855834960938	-170.2362518310547	1062.092651367188	554.9695434570312	-431.915283203125	720.376953125	504.7682495117188	-168.607666015625	985.3382568359376	447.1793518066406	-431.9529724121094	898.5183715820312	397.3983764648438	-426.2130126953125	680.6796875	384.9840087890625	-172.105224609375	770.493408203125	217.4385223388672	-443.5101318359375	615.2611694335938	431.0839233398438	-161.5867767333984	669.2658081054688	353.6845703125	-326.0929260253906	622.6951293945312	302.2007141113281	-184.7613677978516	559.059326171875	349.9687194824219	-178.091064453125	728.4514770507812	340.6983337402344	-411.3531188964844	480.1295166015625	172.5550231933594	-218.0594329833984	606.2060546875	51.6459846496582	-253.1911926269531	407.4319152832031	184.9903717041016	-280.1770324707031	409.0399475097656	157.9947967529297	-308.4988708496094	393.2467041015625	164.9664611816406	-260.2495727539062	656.1185302734375	357.5977478027344	-380.6892700195312
191	0.95	925.899658203125	1470.388671875	-443.0819091796875	971.281494140625	1437.739624023438	-138.2337646484375	881.232177734375	1010.599487304688	-446.9999084472656	897.7313842773438	981.22314453125	-146.6824188232422	940.298095703125	960.5401611328124	-428.2804870605469	710.1539306640625	365.7695007324219	-356.2202758789062	950.031494140625	931.5855102539062	-171.4281463623047	826.9995727539062	886.487548828125	-461.8835754394531	790.8869018554688	895.956787109375	-149.6156921386719	799.4052734375	1040.22900390625	-287.1977233886719	1062.284423828125	714.655029296875	-445.5268859863281	886.4190673828125	460.0380554199219	-433.4542541503906	992.4197387695312	671.15576171875	-459.8316345214844	1111.986572265625	626.7803344726562	-424.253173828125	548.114013671875	68.00650024414062	-194.9978332519531	969.8279418945312	514.6735229492188	-442.7957153320312	1038.580078125	584.4390869140625	-434.2425231933594	834.64013671875	616.4693603515625	-154.8525848388672	868.0265502929688	173.1173400878906	-387.4496459960938	762.4833374023438	645.97021484375	-149.0254821777344	795.5230102539062	524.9464721679688	-179.4777984619141	722.2180786132812	558.3825073242188	-168.8766174316406	1085.527221679688	560.5093383789062	-430.2947387695312	732.9439697265625	511.8761596679688	-167.0531158447266	1012.9404296875	449.3675842285156	-431.2683410644531	929.3107299804688	394.0994262695312	-424.9304809570312	691.3101806640625	393.8774719238281	-169.5894317626953	810.4700927734375	209.7363586425781	-442.9411926269531	625.7042846679688	439.4940185546875	-159.9947052001953	701.1578979492188	339.5460510253906	-325.3012390136719	633.1300659179688	310.4972534179688	-181.6068725585938	569.73974609375	358.3440551757812	-176.3123016357422	761.4063720703125	330.2637634277344	-411.3552856445312	490.9801025390625	179.9024200439453	-215.6884918212891	610.0209350585938	50.5003547668457	-251.7495269775391	420.2931518554688	197.3097076416016	-278.1943969726562	420.4696350097656	170.4368438720703	-306.7171936035156	405.24169921875	177.8269805908203	-258.8541259765625	688.1134033203125	343.4240417480469	-380.2063598632812
192	0.955	943.2965087890624	1474.699340820312	-442.5832214355469	991.9769287109376	1442.658447265625	-139.27734375	902.8043212890624	1015.680603027344	-446.5805358886719	921.0875244140624	985.29296875	-146.7462615966797	961.3075561523438	964.825439453125	-427.9570007324219	741.0444946289062	352.3015747070312	-355.1233825683594	972.3616333007812	934.7841186523438	-171.8760681152344	849.4017944335938	891.1974487304688	-462.5772399902344	812.197021484375	901.2224731445312	-149.1553649902344	820.875732421875	1044.525024414062	-286.4427185058594	1085.330200195312	719.8768310546875	-444.41650390625	913.3026733398438	454.9139709472656	-432.0582885742188	1015.424987792969	675.7588500976562	-459.1402587890625	1135.2314453125	631.9981079101562	-422.0929870605469	552.9253540039062	70.76300048828125	-193.5019683837891	993.8870239257812	513.8510131835938	-441.8667907714844	1061.772216796875	589.6658325195312	-433.4060668945312	850.6400756835938	621.681640625	-154.206787109375	909.720947265625	168.3628387451172	-386.7703247070312	778.98291015625	652.4842529296875	-147.5751495361328	809.4364013671875	531.2919311523438	-177.2056274414062	736.77294921875	565.9594116210938	-167.3065795898438	1108.541259765625	565.5368041992188	-429.0852355957031	746.0515747070312	518.8616333007812	-165.7706604003906	1040.144775390625	450.5373229980469	-430.0956115722656	959.4550170898438	391.4331970214844	-424.1710205078125	702.226806640625	402.3698120117188	-166.5791625976562	850.3370971679688	201.9191284179688	-442.0206909179688	636.7601318359375	448.42236328125	-158.3740081787109	734.10986328125	325.1734313964844	-323.9689025878906	644.8338623046875	318.9197998046875	-178.4293518066406	581.0886840820312	366.7018737792969	-174.8548431396484	794.9657592773438	318.8996887207031	-409.0620727539062	503.3500061035156	187.0262298583984	-212.9855499267578	614.363037109375	49.48687744140625	-250.2654876708984	438.756591796875	210.9401702880859	-274.1801147460938	433.3555297851562	183.9831085205078	-305.0244445800781	418.56396484375	191.5263366699219	-256.4745483398438	721.0694580078125	328.3794250488281	-378.7584533691406
